<svg width="40" height="40" viewBox="0 0 40 40" fill="none" xmlns="http://www.w3.org/2000/svg">
<path fill-rule="evenodd" clip-rule="evenodd" d="M20.6447 23.2221C20.5275 23.2221 20.4103 23.1752 20.3166 23.1049L11.3886 14.1769C11.3184 14.0832 11.2715 13.9661 11.2715 13.8489C11.2715 13.7317 11.3184 13.6146 11.3886 13.5208L17.5046 7.40483C17.6921 7.21737 17.9967 7.21737 18.1842 7.40483L27.0887 16.3093C27.2762 16.4968 27.2762 16.8014 27.0887 16.9889L20.9727 23.1049C20.879 23.1752 20.7618 23.2221 20.6447 23.2221ZM12.3963 13.8489L20.6447 22.0973L26.1045 16.6374L17.8327 8.38902L12.3963 13.8489Z" fill="#5F4632"/>
<path fill-rule="evenodd" clip-rule="evenodd" d="M21.2769 26.198C21.0192 26.198 20.7614 26.0809 20.5739 25.8934L19.4257 24.7452C19.0274 24.3468 19.0274 23.7142 19.4257 23.3158L27.3226 15.4189C27.6975 15.044 28.3771 15.044 28.752 15.4189L29.9002 16.5671C30.2986 16.9655 30.2986 17.5982 29.9002 17.9965L22.0033 25.8934C21.8159 26.0809 21.5581 26.198 21.2769 26.198ZM28.0256 16.075C28.0256 16.075 28.0022 16.075 27.9787 16.0985L20.0818 23.9953C20.0584 24.0188 20.0584 24.0656 20.0818 24.0891L21.2301 25.2373C21.2769 25.2607 21.3004 25.2607 21.3472 25.2373L29.2441 17.3404C29.2675 17.317 29.2675 17.2701 29.2441 17.2467L28.0725 16.0985C28.0725 16.075 28.049 16.075 28.0256 16.075Z" fill="#5F4632"/>
<path fill-rule="evenodd" clip-rule="evenodd" d="M10.4512 15.372C10.1935 15.372 9.93571 15.2549 9.74825 15.0674L8.60004 13.9192C8.41257 13.7317 8.29541 13.474 8.29541 13.2162C8.29541 12.935 8.41257 12.6772 8.60004 12.4898L16.4969 4.59289C16.8719 4.21796 17.528 4.21796 17.9263 4.59289L19.0746 5.7411C19.262 5.92856 19.3558 6.18633 19.3558 6.46752C19.3558 6.72528 19.262 6.98304 19.0746 7.17051L11.1777 15.0674C10.9902 15.2549 10.7324 15.372 10.4512 15.372ZM17.1999 5.24901C17.1999 5.24901 17.1765 5.24901 17.1531 5.24901L9.25616 13.1459C9.23273 13.1693 9.23273 13.1928 9.23273 13.2162C9.23273 13.2162 9.23273 13.2396 9.25616 13.2631L10.4044 14.4113C10.4278 14.4347 10.4747 14.4347 10.4981 14.4113L18.395 6.51439C18.4184 6.49095 18.4184 6.46752 18.4184 6.46752C18.4184 6.44409 18.4184 6.42065 18.395 6.39722L17.2468 5.24901C17.2468 5.24901 17.2234 5.24901 17.1999 5.24901Z" fill="#5F4632"/>
<path fill-rule="evenodd" clip-rule="evenodd" d="M4.96788 32.5015C4.19459 32.5015 3.42131 32.1734 2.85892 31.6345C2.29653 31.0487 1.96847 30.2519 1.9919 29.4083C2.01533 28.6585 2.34339 27.9789 2.88235 27.5103L14.9269 16.9889C15.1143 16.8249 15.3955 16.8483 15.5596 17.0123L17.4811 18.9338C17.6451 19.0979 17.6451 19.3791 17.5045 19.5665L6.98311 31.611C6.49102 32.1734 5.7646 32.5015 4.96788 32.5015ZM15.2081 17.9965L3.51504 28.2133C3.16354 28.5179 2.95265 28.9631 2.92922 29.4552C2.90578 30.0176 3.14011 30.58 3.51504 30.9549C3.9134 31.3533 4.42892 31.5642 4.96788 31.5642C5.4834 31.5642 5.95206 31.3533 6.28012 30.9784L16.4969 19.2853L15.2081 17.9965Z" fill="#5F4632"/>
<path fill-rule="evenodd" clip-rule="evenodd" d="M9.11552 28.9163C8.99835 28.9163 8.88119 28.8694 8.78746 28.7757L5.71775 25.706C5.53028 25.5185 5.53028 25.2139 5.71775 25.0264C5.90521 24.8624 6.20984 24.8624 6.37387 25.0264L9.46701 28.1195C9.63104 28.2836 9.63104 28.5882 9.46701 28.7757C9.37328 28.8694 9.25612 28.9163 9.11552 28.9163Z" fill="#5F4632"/>
<path fill-rule="evenodd" clip-rule="evenodd" d="M7.94361 30.2754C7.82644 30.2754 7.70928 30.2285 7.61555 30.1348L4.35837 26.8776C4.17091 26.6901 4.17091 26.4089 4.35837 26.2215C4.54583 26.034 4.85046 26.034 5.01449 26.2215L8.27167 29.4787C8.45913 29.6427 8.45913 29.9473 8.27167 30.1348C8.17794 30.2285 8.06077 30.2754 7.94361 30.2754Z" fill="#5F4632"/>
<path fill-rule="evenodd" clip-rule="evenodd" d="M13.2631 15.8407C13.1459 15.8407 13.0288 15.7938 12.935 15.7001C12.7476 15.5126 12.7476 15.2314 12.935 15.044L19.051 8.92797C19.2151 8.74051 19.5197 8.74051 19.7071 8.92797C19.8946 9.11544 19.8946 9.42007 19.7071 9.5841L13.5912 15.7001C13.4974 15.7938 13.3803 15.8407 13.2631 15.8407Z" fill="#5F4632"/>
<path fill-rule="evenodd" clip-rule="evenodd" d="M19.1215 21.6989C19.0043 21.6989 18.8872 21.652 18.7934 21.5583C18.606 21.3708 18.606 21.0897 18.7934 20.9022L24.9094 14.7862C25.0735 14.5987 25.3781 14.5987 25.5655 14.7862C25.753 14.9737 25.753 15.2783 25.5655 15.4423L19.4496 21.5583C19.3558 21.652 19.2387 21.6989 19.1215 21.6989Z" fill="#5F4632"/>
<path fill-rule="evenodd" clip-rule="evenodd" d="M37.2584 35.6884H20.8788C20.6211 35.6884 20.4102 35.4775 20.4102 35.2198V31.9392C20.4102 31.6814 20.6211 31.4705 20.8788 31.4705H37.2584C37.5162 31.4705 37.7271 31.6814 37.7271 31.9392V35.2198C37.7271 35.4775 37.5162 35.6884 37.2584 35.6884ZM21.3475 34.7511H36.7898V32.4078H21.3475V34.7511Z" fill="#5F4632"/>
<path fill-rule="evenodd" clip-rule="evenodd" d="M35.29 32.4078H22.8471C22.5893 32.4078 22.3784 32.1969 22.3784 31.9392V28.3305C22.3784 28.0727 22.5893 27.8618 22.8471 27.8618H35.29C35.5477 27.8618 35.7586 28.0727 35.7586 28.3305V31.9392C35.7586 32.1969 35.5477 32.4078 35.29 32.4078ZM23.3157 31.4705H34.8213V28.7991H23.3157V31.4705Z" fill="#5F4632"/>
<path fill-rule="evenodd" clip-rule="evenodd" d="M39.5313 35.6884H0.468658C0.210896 35.6884 0 35.4775 0 35.2197C0 34.9619 0.210896 34.751 0.468658 34.751H39.5313C39.7891 34.751 40 34.9619 40 35.2197C40 35.4775 39.7891 35.6884 39.5313 35.6884Z" fill="#5F4632"/>
</svg>
