<svg width="40" height="40" viewBox="0 0 40 40" fill="none" xmlns="http://www.w3.org/2000/svg">
<path d="M15.4907 29.2243C15.4058 29.2182 15.3149 29.2182 15.224 29.2182H12.9755V28.1455C14.0907 27.1879 14.9028 25.6788 15.1088 24.2546H15.6301C16.2664 24.2546 16.7816 23.7394 16.7816 23.1031V22.794C16.7816 22.2303 16.3694 21.7576 15.8361 21.6606C15.7149 19.5152 14.2846 17.6485 12.2422 16.9879L12.224 16.8C12.1694 16.2728 11.7331 15.8788 11.2058 15.8788H10.0604C9.53308 15.8788 9.09066 16.2728 9.04218 16.8L9.02399 16.9879C6.98157 17.6485 5.54521 19.5152 5.43005 21.6606C4.89066 21.7576 4.4846 22.2243 4.4846 22.794V23.1031C4.4846 23.7394 4.99975 24.2546 5.63611 24.2546H6.27248C6.46036 25.6909 7.18157 27.1758 8.21793 28.1273V29.2182H6.16339C6.03005 29.2182 5.89672 29.2243 5.76945 29.2364C3.46036 29.4303 1.6543 31.4061 1.6543 33.7273V37.6425C1.6543 37.8425 1.81793 38.0061 2.01793 38.0061H3.99975H4.00581H4.01187H17.3755H17.3816C17.3816 38.0061 17.3816 38.0061 17.3876 38.0061H19.3816C19.5816 38.0061 19.7452 37.8425 19.7452 37.6425V33.7273C19.7391 31.3515 17.8725 29.3697 15.4907 29.2243ZM7.54521 29.9515H8.43005L10.3452 31.7576C10.4179 31.8243 10.5028 31.8546 10.5937 31.8546C10.6846 31.8546 10.7755 31.8243 10.8422 31.7576L12.7573 29.9515H13.7149V37.2788H7.54521V29.9515ZM8.93308 17.794L8.79975 19.1091C8.78157 19.3091 8.92702 19.4909 9.12702 19.5091C9.32096 19.5334 9.50278 19.3818 9.52702 19.1818L9.7149 17.3152V17.3091L9.75733 16.8728C9.77551 16.7212 9.90278 16.6061 10.0543 16.6061H11.1998C11.3513 16.6061 11.4785 16.7212 11.4967 16.8728L11.7331 19.1758C11.7513 19.3637 11.9088 19.5031 12.0967 19.5031H12.1331C12.3331 19.4849 12.4785 19.3031 12.4604 19.1031L12.327 17.7879C13.9028 18.4303 14.9937 19.9273 15.1088 21.6364H6.15127C6.26642 19.9334 7.35733 18.4364 8.93308 17.794ZM6.99369 24.2546H14.3755C14.0361 26.2243 12.3876 28.4121 10.5816 28.4121C8.80581 28.4121 7.30278 26.2909 6.99369 24.2546ZM10.5876 29.1394C11.1694 29.1394 11.7331 28.9637 12.2482 28.6667V29.4303L10.5937 30.9879L8.93915 29.4303V28.6728C9.44218 28.9697 9.99975 29.1394 10.5876 29.1394ZM5.43005 30.0243V37.2788H4.36945V35.5697C4.36945 34.5637 3.55127 33.7515 2.55127 33.7515H2.37551V33.7334C2.37551 31.9212 3.6846 30.3637 5.43005 30.0243ZM2.37551 34.4788H2.54521C3.14521 34.4788 3.63611 34.9697 3.63611 35.5697V37.2788H2.37551V34.4788ZM17.7391 37.2788V35.5697C17.7391 34.9697 18.2301 34.4788 18.8301 34.4788H19.0058V37.2788H17.7391ZM19.0058 33.7515H18.8301C17.824 33.7515 17.0119 34.5697 17.0119 35.5697V37.2788H15.8361V30C17.6422 30.297 19.0058 31.8667 19.0058 33.7334V33.7515Z" fill="#5F4632"/>
<path d="M38.085 35.2425L34.7396 29.5819C34.6911 29.497 34.6123 29.4364 34.5153 29.4122V25.5031C34.5456 25.4485 34.582 25.4 34.6123 25.3455L34.7093 25.5031C34.9274 25.8667 35.3093 26.0667 35.7032 26.0667C35.9032 26.0667 36.1032 26.0122 36.2911 25.9091L36.3214 25.8909C36.8668 25.5637 37.0487 24.8546 36.7274 24.3091L34.5153 20.5758V8.78791C34.5153 8.77579 34.5093 8.76973 34.5093 8.76367C34.5093 8.73336 34.5032 8.70912 34.4911 8.67882C34.485 8.6667 34.485 8.64852 34.4729 8.63639C34.4608 8.60609 34.4365 8.57579 34.4123 8.55155C34.4062 8.54549 34.4062 8.53943 34.4002 8.53336L31.1093 5.24246L27.8183 1.94549C27.788 1.91518 27.7456 1.89094 27.7093 1.87276C27.6971 1.8667 27.6911 1.8667 27.679 1.86064C27.6487 1.84852 27.6123 1.84246 27.582 1.84246C27.5759 1.84246 27.5699 1.8364 27.5577 1.8364H13.2123C11.5699 1.8364 10.2305 3.17579 10.2305 4.81821V13.9091C10.2305 14.1091 10.3941 14.2728 10.5941 14.2728C10.7941 14.2728 10.9577 14.1091 10.9577 13.9091V4.81821C10.9577 3.57579 11.9699 2.56367 13.2123 2.56367H27.2002V6.59397C27.2002 8.00003 28.3456 9.14549 29.7517 9.14549H33.782V19.3455L33.2547 18.4546C33.0971 18.1879 32.8487 18 32.5456 17.9212C32.2487 17.8425 31.9335 17.8909 31.6729 18.0485L31.6426 18.0667C31.3759 18.2243 31.188 18.4728 31.1093 18.7758C31.0305 19.0728 31.079 19.3879 31.2365 19.6485L31.3335 19.8061C28.5638 19.8606 26.0487 21.3515 24.6668 23.7515L24.5699 23.594C24.4123 23.3273 24.1638 23.1394 23.8608 23.0606C23.5638 22.9818 23.2487 23.0303 22.988 23.1879L22.9517 23.2061C22.685 23.3637 22.4971 23.6122 22.4183 23.9152C22.3396 24.2122 22.388 24.5273 22.5456 24.7879L26.0123 30.6425C26.1699 30.9091 26.4183 31.097 26.7214 31.1758C26.8183 31.2 26.9153 31.2122 27.0123 31.2122C27.2183 31.2122 27.4183 31.1576 27.6002 31.0485L27.6305 31.0303C28.1759 30.7091 28.3577 29.994 28.0365 29.4485L27.9396 29.2849C28.9214 29.2667 29.8668 29.0667 30.7396 28.7152L31.9699 30.7879L31.5396 31.0425C31.3638 31.1455 31.3093 31.3697 31.4123 31.5394L31.9941 32.5273C31.8426 32.5576 31.6911 32.5758 31.5335 32.5758H21.7032C21.5032 32.5758 21.3396 32.7394 21.3396 32.9394C21.3396 33.1394 21.5032 33.3031 21.7032 33.3031H31.5335C31.8244 33.3031 32.1093 33.2606 32.382 33.1758L34.7577 37.194C35.0183 37.6364 35.4426 37.9515 35.9396 38.0849C36.0971 38.1273 36.2608 38.1455 36.4244 38.1455C36.7638 38.1455 37.1032 38.0546 37.4062 37.8728C37.8487 37.6122 38.1638 37.1879 38.2971 36.6909C38.4244 36.2061 38.3456 35.6849 38.085 35.2425ZM33.782 29.6606L32.5941 27.6546C33.0244 27.3212 33.4244 26.9394 33.782 26.5212V29.6606ZM25.0971 24.497C26.3638 21.9758 28.9456 20.4546 31.7638 20.5515L34.1699 24.6182C33.6365 25.6849 32.8668 26.5697 31.9456 27.2303C31.9274 27.2364 31.9153 27.2485 31.9032 27.2546C31.5335 27.5152 31.1396 27.7394 30.7335 27.9212C30.7274 27.9273 30.7214 27.9334 30.7153 27.9334C29.7274 28.3758 28.6365 28.6 27.5032 28.5576L25.0971 24.497ZM31.4062 28.4182C31.6062 28.3152 31.8062 28.2 32.0002 28.0788L33.182 30.0788L32.8365 30.2788L32.588 30.4243L31.4062 28.4182Z" fill="#5F4632"/>
<path d="M14.0545 7.82426H24.6908C25.3333 7.82426 25.8605 7.29698 25.8605 6.65456V5.49093C25.8605 4.8485 25.3333 4.32123 24.6908 4.32123H14.0545C13.412 4.32123 12.8848 4.8485 12.8848 5.49093V6.65456C12.8848 7.30305 13.406 7.82426 14.0545 7.82426ZM13.612 5.49093C13.612 5.2485 13.812 5.0485 14.0545 5.0485H24.6908C24.9333 5.0485 25.1333 5.2485 25.1333 5.49093V6.65456C25.1333 6.89699 24.9333 7.09699 24.6908 7.09699H14.0545C13.812 7.09699 13.612 6.89699 13.612 6.65456V5.49093Z" fill="#5F4632"/>
<path d="M13.2484 10.7516H27.5636C27.7636 10.7516 27.9272 10.5879 27.9272 10.3879C27.9272 10.1879 27.7636 10.0243 27.5636 10.0243H13.2484C13.0484 10.0243 12.8848 10.1879 12.8848 10.3879C12.8848 10.5879 13.0484 10.7516 13.2484 10.7516Z" fill="#5F4632"/>
<path d="M13.2484 13.9515H29.6363C29.8363 13.9515 29.9999 13.7879 29.9999 13.5879C29.9999 13.3879 29.8363 13.2243 29.6363 13.2243H13.2484C13.0484 13.2243 12.8848 13.3879 12.8848 13.5879C12.8848 13.7879 13.0484 13.9515 13.2484 13.9515Z" fill="#5F4632"/>
<path d="M30.0001 16.7879C30.0001 16.5879 29.8365 16.4243 29.6365 16.4243H14.5214C14.3214 16.4243 14.1577 16.5879 14.1577 16.7879C14.1577 16.9879 14.3214 17.1516 14.5214 17.1516H29.6365C29.8365 17.1516 30.0001 16.9879 30.0001 16.7879Z" fill="#5F4632"/>
<path d="M27.0605 19.9879C27.0605 19.7879 26.8968 19.6243 26.6968 19.6243H16.618C16.418 19.6243 16.2544 19.7879 16.2544 19.9879C16.2544 20.1879 16.418 20.3515 16.618 20.3515H26.6968C26.8968 20.3515 27.0605 20.1879 27.0605 19.9879Z" fill="#5F4632"/>
<path d="M21.6546 22.8243H18.0668C17.8668 22.8243 17.7031 22.9879 17.7031 23.1879C17.7031 23.3879 17.8668 23.5516 18.0668 23.5516H21.6546C21.8546 23.5516 22.0183 23.3879 22.0183 23.1879C22.0183 22.9819 21.8546 22.8243 21.6546 22.8243Z" fill="#5F4632"/>
<path d="M21.6545 26.0243H16.4242C16.2242 26.0243 16.0605 26.1879 16.0605 26.3879C16.0605 26.5879 16.2242 26.7515 16.4242 26.7515H21.6545C21.8545 26.7515 22.0181 26.5879 22.0181 26.3879C22.0181 26.1879 21.8545 26.0243 21.6545 26.0243Z" fill="#5F4632"/>
</svg>
