<svg width="26" height="27" viewBox="0 0 26 27" fill="none" xmlns="http://www.w3.org/2000/svg">
<g clip-path="url(#clip0_178_266)">
<path d="M19.9062 0.195129L6.09375 0.195129C2.72826 0.195129 0 2.92339 0 6.28888L0 20.1014C0 23.4669 2.72826 26.1951 6.09375 26.1951H19.9062C23.2717 26.1951 26 23.4669 26 20.1014V6.28888C26 2.92339 23.2717 0.195129 19.9062 0.195129Z" fill="url(#paint0_radial_178_266)"/>
<path d="M19.9062 0.195129L6.09375 0.195129C2.72826 0.195129 0 2.92339 0 6.28888L0 20.1014C0 23.4669 2.72826 26.1951 6.09375 26.1951H19.9062C23.2717 26.1951 26 23.4669 26 20.1014V6.28888C26 2.92339 23.2717 0.195129 19.9062 0.195129Z" fill="url(#paint1_radial_178_266)"/>
<path d="M13.0009 3.03888C10.2427 3.03888 9.89645 3.05097 8.81319 3.10022C7.73195 3.14979 6.9939 3.32092 6.34816 3.57208C5.68009 3.83147 5.11347 4.17851 4.54898 4.7432C3.98399 5.30779 3.63695 5.8744 3.37675 6.54218C3.12488 7.18811 2.95354 7.92647 2.90489 9.0072C2.85645 10.0906 2.84375 10.4369 2.84375 13.1952C2.84375 15.9536 2.85594 16.2987 2.90509 17.3819C2.95486 18.4632 3.12599 19.2012 3.37695 19.847C3.63655 20.515 3.98359 21.0817 4.54827 21.6461C5.11266 22.2111 5.67927 22.559 6.34684 22.8184C6.99309 23.0695 7.73124 23.2407 8.81227 23.2902C9.89564 23.3395 10.2416 23.3516 12.9997 23.3516C15.7582 23.3516 16.1033 23.3395 17.1866 23.2902C18.2678 23.2407 19.0067 23.0695 19.653 22.8184C20.3207 22.559 20.8865 22.2111 21.4508 21.6461C22.0158 21.0817 22.3627 20.515 22.623 19.8473C22.8727 19.2012 23.0441 18.463 23.0949 17.3821C23.1436 16.2989 23.1562 15.9536 23.1562 13.1952C23.1562 10.4369 23.1436 10.0908 23.0949 9.0074C23.0441 7.92617 22.8727 7.18821 22.623 6.54248C22.3627 5.8744 22.0158 5.30779 21.4508 4.7432C20.8859 4.17831 20.3209 3.83127 19.6523 3.57218C19.0049 3.32092 18.2664 3.14968 17.1852 3.10022C16.1018 3.05097 15.7569 3.03888 12.9978 3.03888H13.0009ZM12.0898 4.86914C12.3603 4.86873 12.662 4.86914 13.0009 4.86914C15.7127 4.86914 16.0341 4.87889 17.105 4.92754C18.0952 4.97283 18.6327 5.13828 18.9907 5.27732C19.4647 5.46135 19.8026 5.68143 20.1578 6.037C20.5133 6.39247 20.7333 6.73098 20.9178 7.20497C21.0569 7.56247 21.2225 8.09994 21.2676 9.09018C21.3162 10.1608 21.3268 10.4824 21.3268 13.1929C21.3268 15.9034 21.3162 16.225 21.2676 17.2956C21.2223 18.2858 21.0569 18.8233 20.9178 19.1809C20.7338 19.6549 20.5133 19.9924 20.1578 20.3477C19.8024 20.7031 19.4649 20.9231 18.9907 21.1073C18.6331 21.2469 18.0952 21.4119 17.105 21.4572C16.0343 21.5059 15.7127 21.5164 13.0009 21.5164C10.289 21.5164 9.96755 21.5059 8.89698 21.4572C7.90674 21.4115 7.36927 21.2461 7.01096 21.107C6.53707 20.9229 6.19846 20.7029 5.84299 20.3475C5.48752 19.992 5.26754 19.6543 5.083 19.1801C4.94396 18.8225 4.77831 18.285 4.73322 17.2948C4.68457 16.2241 4.67482 15.9026 4.67482 13.1904C4.67482 10.4781 4.68457 10.1583 4.73322 9.08764C4.77852 8.0974 4.94396 7.55993 5.083 7.20193C5.26713 6.72793 5.48752 6.38943 5.84309 6.03396C6.19866 5.67849 6.53707 5.4584 7.01106 5.27396C7.36907 5.13432 7.90674 4.96928 8.89698 4.92378C9.83389 4.88143 10.197 4.86873 12.0898 4.8666V4.86914ZM18.4223 6.55548C17.7495 6.55548 17.2036 7.10087 17.2036 7.77382C17.2036 8.44668 17.7495 8.99257 18.4223 8.99257C19.0952 8.99257 19.6411 8.44668 19.6411 7.77382C19.6411 7.10097 19.0952 6.55507 18.4223 6.55507V6.55548ZM13.0009 7.97949C10.1206 7.97949 7.78527 10.3148 7.78527 13.1952C7.78527 16.0756 10.1206 18.4099 13.0009 18.4099C15.8813 18.4099 18.2158 16.0756 18.2158 13.1952C18.2158 10.3149 15.8811 7.97949 13.0007 7.97949H13.0009ZM13.0009 9.80975C14.8706 9.80975 16.3864 11.3254 16.3864 13.1952C16.3864 15.0649 14.8706 16.5807 13.0009 16.5807C11.1313 16.5807 9.61553 15.0649 9.61553 13.1952C9.61553 11.3254 11.1311 9.80975 13.0009 9.80975Z" fill="white"/>
</g>
<defs>
<radialGradient id="paint0_radial_178_266" cx="0" cy="0" r="1" gradientUnits="userSpaceOnUse" gradientTransform="translate(6.90625 28.1976) rotate(-90) scale(25.7679 23.9662)">
<stop stop-color="#FFDD55"/>
<stop offset="0.1" stop-color="#FFDD55"/>
<stop offset="0.5" stop-color="#FF543E"/>
<stop offset="1" stop-color="#C837AB"/>
</radialGradient>
<radialGradient id="paint1_radial_178_266" cx="0" cy="0" r="1" gradientUnits="userSpaceOnUse" gradientTransform="translate(-4.3551 2.06804) rotate(78.681) scale(11.5184 47.4792)">
<stop stop-color="#3771C8"/>
<stop offset="0.128" stop-color="#3771C8"/>
<stop offset="1" stop-color="#6600FF" stop-opacity="0"/>
</radialGradient>
<clipPath id="clip0_178_266">
<rect width="26" height="26" fill="white" transform="translate(0 0.195129)"/>
</clipPath>
</defs>
</svg>
