<svg width="27" height="27" viewBox="0 0 27 27" fill="none" xmlns="http://www.w3.org/2000/svg">
<g clip-path="url(#clip0_178_271)">
<path d="M20.0396 0.195129L6.22705 0.195129C2.86157 0.195129 0.133301 2.92339 0.133301 6.28888L0.133301 20.1014C0.133301 23.4669 2.86157 26.1951 6.22705 26.1951H20.0396C23.405 26.1951 26.1333 23.4669 26.1333 20.1014V6.28888C26.1333 2.92339 23.405 0.195129 20.0396 0.195129Z" fill="white"/>
<path d="M20.0396 0.195129L6.22705 0.195129C2.86157 0.195129 0.133301 2.92339 0.133301 6.28888L0.133301 20.1014C0.133301 23.4669 2.86157 26.1951 6.22705 26.1951H20.0396C23.405 26.1951 26.1333 23.4669 26.1333 20.1014V6.28888C26.1333 2.92339 23.405 0.195129 20.0396 0.195129Z" fill="#0A66C2"/>
<path d="M18.8934 22.3038H21.8662C21.9739 22.3038 22.0772 22.261 22.1534 22.1848C22.2296 22.1086 22.2724 22.0053 22.2724 21.8976L22.2739 15.6168C22.2739 12.334 21.5665 9.81066 17.7302 9.81066C16.2719 9.75643 14.8966 10.5082 14.1545 11.7635C14.1509 11.7696 14.1454 11.7743 14.1388 11.777C14.1322 11.7797 14.1249 11.7801 14.1181 11.7783C14.1112 11.7764 14.1052 11.7724 14.1009 11.7667C14.0965 11.7611 14.0941 11.7542 14.0941 11.7472V10.52C14.0941 10.4122 14.0513 10.3089 13.9751 10.2327C13.8989 10.1565 13.7956 10.1137 13.6878 10.1137H10.8667C10.759 10.1137 10.6557 10.1565 10.5795 10.2327C10.5033 10.3089 10.4605 10.4122 10.4605 10.52V21.897C10.4605 22.0047 10.5033 22.1081 10.5795 22.1843C10.6557 22.2605 10.759 22.3033 10.8667 22.3033H13.8393C13.947 22.3033 14.0503 22.2605 14.1265 22.1843C14.2027 22.1081 14.2455 22.0047 14.2455 21.897V16.2732C14.2455 14.683 14.5472 13.143 16.5186 13.143C18.462 13.143 18.4872 14.9626 18.4872 16.3762V21.8975C18.4872 22.0053 18.53 22.1086 18.6062 22.1848C18.6823 22.261 18.7857 22.3038 18.8934 22.3038ZM3.99268 6.2511C3.99268 7.45604 4.98464 8.44749 6.18968 8.44749C7.39441 8.44739 8.38576 7.45532 8.38576 6.25059C8.38556 5.04586 7.39411 4.0545 6.18927 4.0545C4.98413 4.0545 3.99268 5.04616 3.99268 6.2511ZM4.69945 22.3038H7.67594C7.78369 22.3038 7.88702 22.261 7.9632 22.1848C8.03939 22.1086 8.08219 22.0053 8.08219 21.8975V10.52C8.08219 10.4122 8.03939 10.3089 7.9632 10.2327C7.88702 10.1565 7.78369 10.1137 7.67594 10.1137H4.69945C4.5917 10.1137 4.48837 10.1565 4.41219 10.2327C4.336 10.3089 4.2932 10.4122 4.2932 10.52V21.8975C4.2932 22.0053 4.336 22.1086 4.41219 22.1848C4.48837 22.261 4.5917 22.3038 4.69945 22.3038Z" fill="white"/>
</g>
<defs>
<clipPath id="clip0_178_271">
<rect width="26" height="26" fill="white" transform="translate(0.133301 0.195129)"/>
</clipPath>
</defs>
</svg>
