<svg width="27" height="27" viewBox="0 0 27 27" fill="none" xmlns="http://www.w3.org/2000/svg">
<rect x="0.266602" y="0.195129" width="26" height="26" rx="6.06667" fill="#FFFC00"/>
<path d="M20.0466 17.3482C17.5081 16.1193 17.1035 14.222 17.0855 14.0813C17.0637 13.9108 17.039 13.7768 17.227 13.6034C17.4084 13.4359 18.2129 12.9379 18.4362 12.7821C18.8052 12.5241 18.9677 12.2665 18.8479 11.9498C18.7641 11.7308 18.5602 11.6483 18.3453 11.6483C18.2775 11.6485 18.21 11.6561 18.1438 11.6709C17.7384 11.7589 17.3447 11.962 17.1169 12.0169C17.0895 12.0239 17.0614 12.0277 17.0331 12.0282C16.9116 12.0282 16.8656 11.9741 16.8773 11.828C16.9058 11.3848 16.9661 10.52 16.8961 9.71204C16.8002 8.60046 16.4417 8.0497 16.0166 7.5626C15.811 7.32638 14.856 6.31155 13.0132 6.31155C11.1703 6.31155 10.2166 7.32638 10.0123 7.55967C9.58588 8.04677 9.22778 8.59753 9.13271 9.70911C9.06276 10.517 9.12559 11.3815 9.15155 11.825C9.15993 11.9641 9.11721 12.0252 8.99575 12.0252C8.96748 12.0248 8.93937 12.021 8.91198 12.0139C8.68456 11.9591 8.29086 11.7559 7.88543 11.668C7.8193 11.6531 7.75175 11.6456 7.68397 11.6454C7.46828 11.6454 7.26514 11.7291 7.18138 11.9469C7.06159 12.2636 7.22326 12.5211 7.59351 12.7791C7.81674 12.9349 8.62132 13.4325 8.80267 13.6005C8.9903 13.7739 8.96601 13.9079 8.94423 14.0783C8.92622 14.2212 8.52121 16.1185 5.9831 17.3452C5.83442 17.4173 5.58144 17.5697 6.0275 17.816C6.72778 18.203 7.19394 18.1615 7.55623 18.3948C7.86365 18.5929 7.68188 19.0201 7.90553 19.1743C8.18029 19.364 8.9924 19.1608 10.0416 19.5072C10.9211 19.7971 11.4555 20.6159 13.0153 20.6159C14.575 20.6159 15.1249 19.7933 15.989 19.5072C17.036 19.1608 17.8498 19.364 18.125 19.1743C18.3482 19.0201 18.1669 18.5929 18.4743 18.3948C18.8366 18.1615 19.3023 18.203 20.003 17.816C20.4482 17.5726 20.1953 17.4202 20.0466 17.3482Z" fill="white"/>
<path d="M21.1511 17.2037C21.0371 16.8937 20.8202 16.7279 20.5731 16.5905C20.5266 16.5633 20.4839 16.5415 20.4474 16.5247C20.3737 16.4866 20.2983 16.4498 20.2234 16.4108C19.4531 16.0025 18.8517 15.4873 18.4345 14.8766C18.3161 14.7047 18.2133 14.5225 18.1275 14.3322C18.0919 14.2304 18.0936 14.1726 18.1192 14.1198C18.1445 14.0792 18.178 14.0442 18.2176 14.0172C18.3499 13.9297 18.4865 13.8409 18.579 13.781C18.744 13.6742 18.8747 13.5896 18.9589 13.5297C19.2751 13.3085 19.4963 13.0736 19.6345 12.811C19.7309 12.6295 19.7871 12.4295 19.7994 12.2244C19.8116 12.0193 19.7795 11.8139 19.7053 11.6223C19.4958 11.0712 18.9752 10.729 18.3445 10.729C18.2114 10.7288 18.0788 10.7429 17.9487 10.7709C17.9139 10.7784 17.8792 10.7864 17.8452 10.7951C17.8511 10.4182 17.8427 10.0203 17.8092 9.62871C17.6903 8.25201 17.2082 7.53037 16.7056 6.95489C16.3838 6.59428 16.0047 6.28919 15.5836 6.0519C14.8209 5.61631 13.956 5.39517 13.0132 5.39517C12.0704 5.39517 11.2097 5.61631 10.4462 6.0519C10.0241 6.28926 9.6442 6.59496 9.32205 6.95657C8.81946 7.53204 8.33738 8.25494 8.21844 9.63038C8.18493 10.022 8.17655 10.422 8.182 10.7968C8.14807 10.788 8.11373 10.7801 8.07896 10.7725C7.94889 10.7446 7.81621 10.7305 7.68317 10.7306C7.05199 10.7306 6.53055 11.0728 6.32197 11.624C6.24742 11.8157 6.215 12.0212 6.22693 12.2265C6.23885 12.4318 6.29484 12.6322 6.39108 12.8139C6.52971 13.0765 6.75085 13.3115 7.06707 13.5326C7.15084 13.5913 7.28193 13.6759 7.44695 13.7839C7.53616 13.8417 7.66642 13.9263 7.79416 14.0109C7.83885 14.0398 7.87684 14.0779 7.90557 14.1228C7.93237 14.1776 7.93321 14.2367 7.89342 14.3456C7.80879 14.5319 7.70774 14.7103 7.59145 14.8787C7.18351 15.4756 6.59966 15.9815 5.85414 16.3865C5.45918 16.5959 5.04873 16.7358 4.87534 17.207C4.74466 17.5626 4.8301 17.9672 5.16223 18.3081C5.28413 18.4354 5.42551 18.5424 5.58106 18.6252C5.90473 18.803 6.2489 18.9407 6.60594 19.0352C6.67962 19.0542 6.74957 19.0855 6.81284 19.1278C6.93388 19.2337 6.91671 19.3933 7.07796 19.627C7.15891 19.7478 7.26176 19.8524 7.38119 19.9353C7.71961 20.169 8.09991 20.1836 8.50282 20.1991C8.86678 20.213 9.27933 20.2289 9.75051 20.3843C9.94569 20.4488 10.1484 20.5736 10.3834 20.7193C10.9475 21.0661 11.7199 21.5406 13.0124 21.5406C14.3049 21.5406 15.0826 21.0636 15.651 20.7156C15.8843 20.5723 16.0857 20.4488 16.2755 20.3859C16.7466 20.2301 17.1592 20.2146 17.5232 20.2008C17.9261 20.1853 18.3064 20.1707 18.6448 19.9369C18.7862 19.8383 18.9041 19.7096 18.9899 19.56C19.1059 19.3627 19.103 19.2249 19.2119 19.1286C19.2712 19.0884 19.3369 19.0583 19.4062 19.0398C19.7681 18.9451 20.117 18.8061 20.4449 18.626C20.6102 18.5373 20.7589 18.4209 20.8847 18.2817L20.8889 18.2767C21.2005 17.9433 21.2788 17.5505 21.1511 17.2037ZM20.0022 17.821C19.3015 18.208 18.8358 18.1666 18.4735 18.3998C18.1656 18.5979 18.3478 19.0252 18.1242 19.1793C17.8494 19.369 17.0373 19.1659 15.9881 19.5123C15.1228 19.7983 14.5708 20.6209 13.0145 20.6209C11.4581 20.6209 10.919 19.8 10.0395 19.5102C8.99243 19.1638 8.17865 19.3669 7.90347 19.1772C7.68024 19.0231 7.86159 18.5959 7.55417 18.3977C7.19146 18.1645 6.72573 18.2059 6.02544 17.821C5.57939 17.5747 5.83236 17.4223 5.98105 17.3503C8.51915 16.1214 8.92416 14.2241 8.94217 14.0834C8.96395 13.9129 8.98824 13.7789 8.80061 13.6055C8.61925 13.438 7.81468 12.94 7.59145 12.7842C7.22204 12.5262 7.05953 12.2686 7.17932 11.952C7.26308 11.7329 7.46747 11.6504 7.68191 11.6504C7.74969 11.6506 7.81724 11.6582 7.88337 11.673C8.2888 11.761 8.6825 11.9641 8.90992 12.019C8.93731 12.026 8.96542 12.0298 8.99369 12.0303C9.11515 12.0303 9.15787 11.9691 9.14949 11.8301C9.12353 11.3865 9.0607 10.5221 9.13065 9.71415C9.22656 8.60257 9.58466 8.05181 10.0102 7.56471C10.2146 7.33059 11.175 6.31576 13.0115 6.31576C14.8481 6.31576 15.811 7.3264 16.0154 7.55969C16.4413 8.04678 16.7998 8.59755 16.8949 9.70912C16.9649 10.517 16.9045 11.3819 16.8761 11.825C16.8664 11.9712 16.9104 12.0252 17.0319 12.0252C17.0601 12.0248 17.0883 12.021 17.1156 12.0139C17.3435 11.9591 17.7372 11.7559 18.1426 11.668C18.2087 11.6532 18.2763 11.6456 18.3441 11.6454C18.5598 11.6454 18.7629 11.7291 18.8467 11.9469C18.9664 12.2636 18.8048 12.5211 18.435 12.7791C18.2117 12.9349 17.4071 13.4325 17.2258 13.6005C17.0377 13.7739 17.0624 13.9079 17.0842 14.0784C17.1022 14.2212 17.5068 16.1185 20.0454 17.3452C20.1953 17.4202 20.4483 17.5727 20.0022 17.821Z" fill="black"/>
</svg>
