<svg width="28" height="27" viewBox="0 0 28 27" fill="none" xmlns="http://www.w3.org/2000/svg">
<g clip-path="url(#clip0_178_276)">
<rect x="0.266602" y="0.278473" width="26.8667" height="25.8333" rx="6.06667" fill="white"/>
<path d="M4.1047 -0.36734C1.98775 -0.36734 0.266602 1.37036 0.266602 3.50766V22.8827C0.266602 25.02 1.98775 26.7577 4.1047 26.7577H23.2952C25.4121 26.7577 27.1333 25.02 27.1333 22.8827V3.50766C27.1333 1.37036 25.4121 -0.36734 23.2952 -0.36734H4.1047ZM21.9219 4.7186L15.6969 11.8995L23.0193 21.6717H17.2862L12.8004 15.7442L7.66093 21.6717H4.81235L11.469 13.9883L4.44653 4.7186H10.3236L14.3836 10.1375L19.0733 4.7186H21.9219ZM19.655 19.9522L9.46604 6.34731H7.76888L18.0718 19.9522H19.649H19.655Z" fill="black"/>
</g>
<defs>
<clipPath id="clip0_178_276">
<rect x="0.266602" y="0.278473" width="26.8667" height="25.8333" rx="6.06667" fill="white"/>
</clipPath>
</defs>
</svg>
