<svg width="27" height="27" viewBox="0 0 27 27" fill="none" xmlns="http://www.w3.org/2000/svg">
<g clip-path="url(#clip0_178_282)">
<path d="M0.399902 26.1951L2.23753 19.5221C1.10143 17.5635 0.505442 15.3453 0.51165 13.0777C0.51165 5.97222 6.32253 0.195129 13.4558 0.195129C16.9199 0.195129 20.173 1.53591 22.6129 3.97032C25.0589 6.40473 26.4061 9.64237 26.3999 13.0839C26.3999 20.1894 20.589 25.9665 13.4496 25.9665H13.4434C11.2767 25.9665 9.14727 25.4228 7.25377 24.3971L0.399902 26.1951ZM7.5828 22.0678L7.97392 22.3025C9.6253 23.2788 11.5188 23.7916 13.4496 23.7978H13.4558C19.3846 23.7978 24.2146 18.9969 24.2146 13.0901C24.2146 10.2294 23.0971 7.54161 21.067 5.515C19.0369 3.48838 16.3302 2.37621 13.4558 2.37621C7.52693 2.37003 2.69694 7.17089 2.69694 13.0777C2.69694 15.0982 3.26189 17.0692 4.34212 18.7745L4.59665 19.1823L3.51022 23.1305L7.5828 22.0678Z" fill="white"/>
<path d="M0.853027 25.7441L2.62858 19.2997C1.52972 17.4152 0.952359 15.2712 0.952359 13.0839C0.958567 6.22555 6.56458 0.646179 13.4557 0.646179C16.8019 0.646179 19.9371 1.94371 22.2962 4.29162C24.6553 6.63953 25.9528 9.76595 25.9528 13.0901C25.9528 19.9485 20.3406 25.5278 13.4557 25.5278H13.4495C11.3573 25.5278 9.3024 25.0026 7.47719 24.0141L0.853027 25.7441Z" fill="url(#paint0_linear_178_282)"/>
<path d="M0.399902 26.1951L2.23753 19.5221C1.10143 17.5635 0.505442 15.3453 0.51165 13.0777C0.51165 5.97222 6.32253 0.195129 13.4558 0.195129C16.9199 0.195129 20.173 1.53591 22.6129 3.97032C25.0589 6.40473 26.4061 9.64237 26.3999 13.0839C26.3999 20.1894 20.589 25.9665 13.4496 25.9665H13.4434C11.2767 25.9665 9.14727 25.4228 7.25377 24.3971L0.399902 26.1951ZM7.5828 22.0678L7.97392 22.3025C9.6253 23.2788 11.5188 23.7916 13.4496 23.7978H13.4558C19.3846 23.7978 24.2146 18.9969 24.2146 13.0901C24.2146 10.2294 23.0971 7.54161 21.067 5.515C19.0369 3.48838 16.3302 2.37621 13.4558 2.37621C7.52693 2.37003 2.69694 7.17089 2.69694 13.0777C2.69694 15.0982 3.26189 17.0692 4.34212 18.7745L4.59665 19.1823L3.51022 23.1305L7.5828 22.0678Z" fill="url(#paint1_linear_178_282)"/>
<path fill-rule="evenodd" clip-rule="evenodd" d="M10.2219 7.68989C9.97973 7.15234 9.7252 7.13998 9.49549 7.1338C9.30925 7.12762 9.09196 7.12762 8.87467 7.12762C8.65738 7.12762 8.30972 7.20795 8.01173 7.52924C7.71374 7.85053 6.88184 8.62905 6.88184 10.217C6.88184 11.7987 8.04277 13.331 8.20418 13.5473C8.3656 13.7636 10.4453 17.1186 13.7295 18.4099C16.4611 19.485 17.0198 19.2688 17.6096 19.2132C18.1994 19.1576 19.5218 18.4347 19.7949 17.6809C20.0619 16.9271 20.0619 16.2845 19.9812 16.1485C19.9005 16.0126 19.6832 15.9323 19.3603 15.7716C19.0375 15.611 17.4482 14.8325 17.1502 14.7213C16.8522 14.6162 16.6349 14.5606 16.4239 14.8819C16.2066 15.2032 15.5857 15.9261 15.3995 16.1424C15.2133 16.3586 15.0208 16.3833 14.698 16.2227C14.3751 16.062 13.3322 15.7222 12.0967 14.6224C11.1345 13.7697 10.4826 12.7132 10.2964 12.3919C10.1101 12.0706 10.2777 11.8976 10.4391 11.7369C10.5819 11.5948 10.762 11.36 10.9234 11.1747C11.0848 10.9893 11.1407 10.8534 11.2462 10.6371C11.3517 10.4209 11.3021 10.2355 11.2214 10.0749C11.1407 9.9204 10.5074 8.32629 10.2219 7.68989Z" fill="white"/>
</g>
<defs>
<linearGradient id="paint0_linear_178_282" x1="13.4023" y1="25.7428" x2="13.4023" y2="0.645301" gradientUnits="userSpaceOnUse">
<stop stop-color="#20B038"/>
<stop offset="1" stop-color="#60D66A"/>
</linearGradient>
<linearGradient id="paint1_linear_178_282" x1="13.4024" y1="26.1927" x2="13.4024" y2="0.195129" gradientUnits="userSpaceOnUse">
<stop stop-color="#F9F9F9"/>
<stop offset="1" stop-color="white"/>
</linearGradient>
<clipPath id="clip0_178_282">
<rect width="26" height="26" fill="white" transform="translate(0.399902 0.195129)"/>
</clipPath>
</defs>
</svg>
